# AST/ASF file generated using VICON BodyLanguage
# -----------------------------------------------
:version 1.10
:name VICON
:units
  mass 1.0
  length 0.45
  angle deg
:documentation
   .ast/.asf automatically generated from VICON data using
   VICON BodyBuilder and BodyLanguage model FoxedUp or BRILLIANT.MOD
:root
   order TX TY TZ RX RY RZ
   axis XYZ
   position 0 0 0  
   orientation 0 0 0 
:bonedata
  begin
     id 1 
     name lhipjoint
     direction 0.584852 -0.759097 0.285867 
     length 2.43633 
     axis 0 0 0  XYZ
  end
  begin
     id 2 
     name lfemur
     direction 0.34202 -0.939693 0  
     length 7.14704  
     axis 0 0 20  XYZ
    dof rx ry rz
    limits (-160.0 20.0)
           (-70.0 70.0)
           (-60.0 70.0)
  end
  begin
     id 3 
     name ltibia
     direction 0.342022 -0.939692 0   
     length 7.68483   
     axis 0 0 20   XYZ
    dof rx
    limits (-10.0 170.0)
  end
  begin
     id 4 
     name lfoot
     direction 0.0999605 -0.274639 0.956337   
     length 2.40452   
     axis -90 7.62852e-016 20   XYZ
    dof rx rz
    limits (-45.0 90.0)
           (-70.0 20.0)
  end
  begin
     id 5 
     name ltoes
     direction 1.53468e-011 -4.21881e-011 1   
     length 1.19837   
     axis -90 7.62852e-016 20   XYZ
    dof rx
    limits (-90.0 20.0)
  end
  begin
     id 6 
     name rhipjoint
     direction -0.569886 -0.769002 0.289597   
     length 2.40495  
     axis 0 0 0  XYZ 
  end
  begin
     id 7 
     name rfemur
     direction -0.34202 -0.939693 0   
     length 7.45086   
     axis 0 0 -20   XYZ
    dof rx ry rz
    limits (-160.0 20.0)
           (-70.0 70.0)
           (-70.0 60.0)
  end
  begin
     id 8 
     name rtibia
     direction -0.34202 -0.939693 0   
     length 7.76831   
     axis 0 0 -20   XYZ
    dof rx
    limits (-10.0 170.0)
 end
 begin
     id 9 
     name rfoot
     direction -0.0798572 -0.219406 0.97236   
     length 2.35911  
     axis -90 -7.62852e-016 -20   XYZ
    dof rx rz
    limits (-45.0 90.0)
           (-20.0 70.0)
  end
  begin
     id 10 
     name rtoes
     direction -1.53469e-011 -4.21728e-011 1   
     length 1.18261   
     axis -90 -7.62852e-016 -20   XYZ
    dof rx
    limits (-90.0 20.0)
  end
  begin
     id 11 
     name lowerback
     direction 0.0242088 0.999437 0.0232389   
     length 2.1561   
     axis 0 0 0   XYZ
    dof rx ry rz
    limits (-20.0 45.0)
           (-30.0 30.0)
           (-30.0 30.0)
  end
  begin
     id 12 
     name upperback
     direction -0.0356893 0.999013 -0.0264323   
     length 2.14431   
     axis 0 0 0   XYZ
    dof rx ry rz
    limits (-20.0 45.0)
           (-30.0 30.0)
           (-30.0 30.0)
  end
  begin
     id 13 
     name thorax
     direction -0.0472163 0.998194 -0.0371284   
     length 2.16169   
     axis 0 0 0   XYZ
    dof rx ry rz
    limits (-20.0 45.0)
           (-30.0 30.0)
           (-30.0 30.0)
  end
  begin
     id 14 
     name lowerneck
     direction 0.00863244 0.999921 0.00911972   
     length 1.58651   
     axis 0 0 0   XYZ
    dof rx ry rz
    limits (-20.0 45.0)
           (-30.0 30.0)
           (-30.0 30.0)
  end
  begin
     id 15 
     name upperneck
     direction 0.149523 0.979068 -0.138086   
     length 1.57486   
     axis 0 0 0   XYZ
    dof rx ry rz
    limits (-20.0 45.0)
           (-30.0 30.0)
           (-30.0 30.0)
  end
  begin
     id 16
     name head
     direction 0.0445219 0.997708 -0.0509576  
     length 1.6019  
     axis 0 0 0   XYZ
    dof rx ry rz
    limits (-20.0 45.0)
           (-30.0 30.0)
           (-30.0 30.0)
  end
  begin
     id 17 
     name lclavicle
     direction 0.911271 0.381667 -0.154644  
     length 3.80848  
     axis 0 0 0   XYZ
    dof ry rz
    limits (-20.0 10.0)
           (0.0 20.0)
  end
  begin
     id 18 
     name lhumerus
     direction 1 -4.49003e-011 2.1308e-027   
     length 5.19069   
     axis 180 -30 -90   XYZ
    dof rx ry rz
    limits (-60.0 90.0)
           (-90.0 90.0)
           (-90.0 90.0)
  end
  begin
     id 19
     name lradius
     direction 1 -4.48914e-011 4.01554e-027   
     length 3.30016   
     axis 180 -30 -90   XYZ
    dof rx
    limits (-10.0 170.0)
  end
  begin
     id 20
     name lwrist
     direction 1 -4.49003e-011 1.1934e-026   
     length 1.65008   
     axis -8.46377e-015 90 90   XYZ
    dof ry
    limits (-180.0 0.0)
 end
  begin
     id 21 
     name lhand
     direction 1 -4.49034e-011 2.38659e-026   
     length 0.707698   
     axis -1.52313e-014 90 90   XYZ
    dof rx rz
    limits (-90.0 90.0)
           (-45.0 45.0)
  end
  begin
     id 22 
     name lfingers
     direction 1 -4.48691e-011 4.77775e-026   
     length 0.570564   
     axis -3.04623e-014 90 90   XYZ
    dof rx
    limits (0.0 90.0)
  end
  begin
     id 23
     name lthumb
     direction 0.707107 -6.34832e-011 0.707107   
     length 0.819219   
     axis -90 45 -1.62303e-014   XYZ
    dof rx rz
    limits (-45.0 45.0)
           (-45.0 45.0)
  end
  begin
     id 24 
     name rclavicle
     direction -0.815579 0.573708 -0.0754329   
     length 3.54371  
     axis 0 0 0   XYZ 
    dof ry rz
    limits (-10.0 20.0)
           (-20.0 0.0)
  end
  begin
     id 25 
     name rhumerus
     direction -1 -4.48956e-011 3.05351e-028  
     length 5.23924   
     axis 180 30 90   XYZ
    dof rx ry rz
    limits (-90.0 60.0)
           (-90.0 90.0)
           (-90.0 90.0)
  end
  begin
     id 26 
     name rradius
     direction -1 -4.49013e-011 3.53849e-027   
     length 3.32953   
     axis 180 30 90   XYZ
    dof rx
    limits (-10.0 170.0)
  end
  begin
     id 27 
     name rwrist
     direction -1 -4.48901e-011 1.19374e-026   
     length 1.66477   
     axis -8.46377e-015 -90 -90   XYZ
    dof ry
    limits (-180.0 0.0)
  end
  begin
     id 28
     name rhand
     direction -1 -4.48877e-011 2.38764e-026   
     length 0.607414   
     axis -1.52313e-014 -90 -90   XYZ
    dof rx rz
    limits (-90.0 90.0)
           (-45.0 45.0)
  end
  begin
     id 29
     name rfingers
     direction -1 -4.48882e-011 4.77521e-026   
     length 0.489712   
     axis -3.04623e-014 -90 -90   XYZ
    dof rx
    limits (0.0 90.0)
  end
  begin
     id 30
     name rthumb
     direction -0.707107 -6.34974e-011 0.707107   
     length 0.703132   
     axis -90 -45 1.62303e-014   XYZ
    dof rx rz
    limits (-45.0 45.0)
           (-45.0 45.0)
  end
:hierarchy
  begin
    root lhipjoint rhipjoint lowerback
    lhipjoint lfemur
    lfemur ltibia
    ltibia lfoot
    lfoot ltoes
    rhipjoint rfemur
    rfemur rtibia
    rtibia rfoot
    rfoot rtoes
    lowerback upperback
    upperback thorax
    thorax lowerneck lclavicle rclavicle
    lowerneck upperneck
    upperneck head
    lclavicle lhumerus
    lhumerus lradius
    lradius lwrist
    lwrist lhand lthumb
    lhand lfingers
    rclavicle rhumerus
    rhumerus rradius
    rradius rwrist
    rwrist rhand rthumb
    rhand rfingers
  end

#!OML:ASF E:\VariousWalksJay\Project 1\Capture day 1\Session 1\Actor2.ASF
:FULLY-SPECIFIED
:DEGREES
140
root 7.34694 16.9567 9.93266 13.9856 -48.9126 -15.1506
lowerback -5.95628 -0.376243 10.0734
upperback 3.7546 -1.52775 1.06333
thorax 7.13402 -0.298842 -4.70746
lowerneck -11.8202 -0.834894 -1.22417
upperneck 7.92078 -1.9997 9.52842
head 4.42785 -0.478613 3.00234
rclavicle -6.43565e-014 -1.98785e-015
rhumerus -71.2186 30.207 -122.029
rradius 51.1942
rwrist -1.09103
rhand 2.984 -3.13982
rfingers 7.12502
rthumb 28.4453 -30.9976
lclavicle -6.43565e-014 -1.98785e-015
lhumerus -74.9004 -39.1857 130.149
lradius 38.8492
lwrist 9.69906
lhand 12.7813 -4.97665
lfingers 7.12502
lthumb 37.7592 20.8877
rfemur -13.4566 -3.41478 31.7199
rtibia 38.3004
rfoot -25.9842 -10.8091
rtoes 0.106011
lfemur -14.4468 5.77729 -10.2701
ltibia 41.2351
lfoot -27.7758 8.02642
ltoes -9.82289
141
root 7.34472 16.9569 9.93171 13.8762 -48.9055 -15.0154
lowerback -5.94709 -0.3803 10.0027
upperback 3.80795 -1.52584 1.0151
thorax 7.18623 -0.295512 -4.71937
lowerneck -11.778 -0.752699 -1.13213
upperneck 7.90711 -1.898 9.48957
head 4.40973 -0.429648 2.98234
rclavicle -3.72224e-014 -7.95139e-015
rhumerus -72.7272 29.8459 -123.754
rradius 53.2554
rwrist -1.19556
rhand 2.70216 -2.55885
rfingers 7.12502
rthumb 28.1759 -30.4613
lclavicle -3.72224e-014 -7.95139e-015
lhumerus -76.8412 -38.7203 132.118
lradius 41.2699
lwrist 9.99785
lhand 13.0513 -4.93853
lfingers 7.12502
lthumb 38.0143 20.8568
rfemur -13.4672 -3.41768 31.6353
rtibia 38.3467
rfoot -26.0138 -10.8311
rtoes 0.110898
lfemur -14.4546 5.83326 -10.3574
ltibia 41.2477
lfoot -27.7427 8.00697
ltoes -9.92188
142
root 7.34307 16.9572 9.93019 13.7997 -48.9058 -14.9154
lowerback -5.93078 -0.377886 9.94875
upperback 3.85227 -1.51586 0.974364
thorax 7.22584 -0.288606 -4.73155
lowerneck -11.7338 -0.683874 -1.05372
upperneck 7.91905 -1.81477 9.45656
head 4.40044 -0.389096 2.96519
rclavicle -3.69739e-014 1.63003e-014
rhumerus -74.1008 29.4253 -125.364
rradius 55.2167
rwrist -1.25415
rhand 2.43021 -2.01061
rfingers 7.12502
rthumb 27.916 -29.9556
lclavicle -3.69739e-014 1.63003e-014
lhumerus -78.6056 -38.1836 133.897
lradius 43.6784
lwrist 10.3572
lhand 13.2112 -4.9003
lfingers 7.12502
lthumb 38.1653 20.8538
rfemur -13.4819 -3.41137 31.5745
rtibia 38.3836
rfoot -26.0356 -10.8491
rtoes 0.120806
lfemur -14.4737 5.90142 -10.4202
ltibia 41.2664
lfoot -27.7029 7.98416
ltoes -10.0143
143
root 7.34152 16.9578 9.92925 13.7148 -48.9164 -14.8052
lowerback -5.91541 -0.373044 9.88685
upperback 3.89339 -1.50159 0.931883
thorax 7.26321 -0.280168 -4.74065
lowerneck -11.6848 -0.62575 -0.985687
upperneck 7.94897 -1.74582 9.42561
head 4.3968 -0.355315 2.94945
rclavicle 3.34952e-014 -2.06736e-014
rhumerus -75.3431 28.9658 -126.865
rradius 57.062
rwrist -1.31138
rhand 2.16982 -1.52129
rfingers 7.12502
rthumb 27.667 -29.5065
lclavicle 3.34952e-014 -2.06736e-014
lhumerus -80.1929 -37.5923 135.495
lradius 46.0523
lwrist 10.7306
lhand 13.3803 -5.03781
lfingers 7.12502
lthumb 38.3249 20.6723
rfemur -13.4882 -3.42384 31.4971
rtibia 38.4123
rfoot -26.0549 -10.8364
rtoes 0.147324
lfemur -14.4892 5.98022 -10.495
ltibia 41.2935
lfoot -27.6678 7.959
ltoes -10.1078
144
root 7.34134 16.9586 9.92606 13.7007 -48.9298 -14.768
lowerback -5.87954 -0.359328 9.85543
upperback 3.92022 -1.47624 0.908061
thorax 7.27511 -0.267165 -4.74505
lowerneck -11.6261 -0.578826 -0.932426
upperneck 7.9824 -1.68987 9.39759
head 4.39351 -0.328308 2.93608
rclavicle 4.1546e-014 -4.37326e-015
rhumerus -76.4586 28.4765 -128.253
rradius 58.8262
rwrist -1.41389
rhand 2.00909 -1.28013
rfingers 7.12502
rthumb 27.5133 -29.2899
lclavicle 4.1546e-014 -4.37326e-015
lhumerus -81.6351 -36.9809 136.966
lradius 48.381
lwrist 11.1
lhand 13.6632 -5.42744
lfingers 7.12502
lthumb 38.5919 20.2083
rfemur -13.5177 -3.39216 31.4809
rtibia 38.4304
rfoot -26.0621 -10.8485
rtoes 0.205657
lfemur -14.5418 6.0693 -10.5139
ltibia 41.334
lfoot -27.6179 7.93096
ltoes -10.1831
145
root 7.34325 16.9598 9.91898 13.7326 -48.9526 -14.7677
lowerback -5.80383 -0.337316 9.81872
upperback 3.93038 -1.4343 0.897288
thorax 7.24857 -0.249191 -4.72974
lowerneck -11.5606 -0.544576 -0.888683
upperneck 8.01071 -1.64891 9.37063
head 4.38845 -0.309194 2.92343
rclavicle 4.92986e-014 -7.15625e-015
rhumerus -77.4422 27.9661 -129.525
rradius 60.505
rwrist -1.55342
rhand 1.98064 -1.36125
rfingers 7.12502
rthumb 27.4861 -29.3754
lclavicle 4.92986e-014 -7.15625e-015
lhumerus -82.938 -36.3672 138.32
lradius 50.6431
lwrist 11.4246
lhand 14.0091 -6.02547
lfingers 7.12502
lthumb 38.9181 19.518
rfemur -13.5856 -3.28255 31.5077
rtibia 38.4448
rfoot -26.0528 -10.9204
rtoes 0.279914
lfemur -14.6369 6.1601 -10.5032
ltibia 41.3763
lfoot -27.5413 7.91007
ltoes -10.2381
146
root 7.34526 16.9612 9.91259 13.7731 -48.9888 -14.7711
lowerback -5.7404 -0.304997 9.7854
upperback 3.94189 -1.38068 0.888159
thorax 7.23249 -0.224792 -4.71357
lowerneck -11.4836 -0.520013 -0.860568
upperneck 8.02017 -1.61724 9.34937
head 4.37637 -0.295624 2.91427
rclavicle 2.24627e-014 4.37326e-015
rhumerus -78.3053 27.4514 -130.684
rradius 62.1059
rwrist -1.72966
rhand 2.1465 -1.84673
rfingers 7.12502
rthumb 27.6447 -29.8355
lclavicle 2.24627e-014 4.37326e-015
lhumerus -84.1136 -35.7639 139.579
lradius 52.8301
lwrist 11.6819
lhand 14.3534 -6.7522
lfingers 7.12502
lthumb 39.2426 18.6979
rfemur -13.6547 -3.18515 31.5277
rtibia 38.4541
rfoot -26.0401 -10.9638
rtoes 0.361888
lfemur -14.731 6.25189 -10.497
ltibia 41.417
lfoot -27.4693 7.89836
ltoes -10.2736
147
root 7.3463 16.9628 9.90957 13.7578 -49.0388 -14.7054
lowerback -5.71378 -0.269541 9.72455
upperback 3.9639 -1.32446 0.865292
thorax 7.2494 -0.198044 -4.69723
lowerneck -11.4034 -0.499329 -0.836524
upperneck 8.01392 -1.58787 9.3212
head 4.35903 -0.284212 2.90332
rclavicle 1.04362e-014 7.95139e-016
rhumerus -79.0606 26.9485 -131.734
rradius 63.6281
rwrist -1.95066
rhand 2.42463 -2.31922
rfingers 7.12502
rthumb 27.9106 -30.2651
lclavicle 1.04362e-014 7.95139e-016
lhumerus -85.15 -35.1689 140.734
lradius 54.9221
lwrist 11.8562
lhand 14.6269 -7.50941
lfingers 7.12502
lthumb 39.5004 17.8654
rfemur -13.7046 -3.16944 31.4735
rtibia 38.4646
rfoot -26.0304 -10.929
rtoes 0.40068
lfemur -14.7909 6.34048 -10.5543
ltibia 41.4419
lfoot -27.4149 7.8939
ltoes -10.3024
148
root 7.34765 16.9645 9.90711 13.7512 -49.0922 -14.6469
lowerback -5.69744 -0.22719 9.67398
upperback 3.9888 -1.26171 0.846089
thorax 7.27646 -0.16714 -4.6822
lowerneck -11.3191 -0.487652 -0.822933
upperneck 7.98985 -1.56669 9.28771
head 4.33598 -0.278012 2.89168
rclavicle -3.50855e-014 -1.19271e-014
rhumerus -79.7133 26.4633 -132.68
rradius 65.0497
rwrist -2.13677
rhand 2.80141 -2.65607
rfingers 7.12502
rthumb 28.2708 -30.5429
lclavicle -3.50855e-014 -1.19271e-014
lhumerus -86.066 -34.596 141.805
lradius 56.9187
lwrist 11.9778
lhand 14.798 -8.21378
lfingers 7.12502
lthumb 39.6615 17.1135
rfemur -13.756 -3.17818 31.417
rtibia 38.4729
rfoot -26.0172 -10.8692
rtoes 0.420226
lfemur -14.8436 6.41919 -10.612
ltibia 41.452
lfoot -27.3618 7.89998
ltoes -10.3115
149
root 7.3492 16.9662 9.90562 13.7379 -49.1501 -14.5697
lowerback -5.7055 -0.186519 9.62514
upperback 4.02179 -1.20418 0.818827
thorax 7.32551 -0.137138 -4.67777
lowerneck -11.2366 -0.472209 -0.812551
upperneck 7.94328 -1.53874 9.2597
head 4.30607 -0.268905 2.88258
rclavicle -7.55382e-015 -2.8625e-014
rhumerus -80.2868 26.025 -133.556
rradius 66.3647
rwrist -2.23547
rhand 3.13281 -2.71807
rfingers 7.12502
rthumb 28.5875 -30.552
lclavicle -7.55382e-015 -2.8625e-014
lhumerus -86.8362 -34.0425 142.75
lradius 58.8047
lwrist 12.0659
lhand 14.8643 -8.89554
lfingers 7.12502
lthumb 39.7239 16.4132
rfemur -13.8122 -3.2211 31.3379
rtibia 38.4807
rfoot -26.0025 -10.7739
rtoes 0.424278
lfemur -14.8908 6.48686 -10.6909
ltibia 41.4468
lfoot -27.3136 7.92183
ltoes -10.3179
150
root 7.35129 16.9679 9.90488 13.7549 -49.2037 -14.5178
lowerback -5.7337 -0.144754 9.60771
upperback 4.05847 -1.15078 0.792913
thorax 7.38969 -0.106799 -4.69025
lowerneck -11.1614 -0.455648 -0.798436
upperneck 7.88395 -1.50826 9.22534
head 4.27331 -0.258948 2.871
rclavicle -1.29309e-013 0
rhumerus -80.7755 25.63 -134.351
rradius 67.5744
rwrist -2.28252
rhand 3.46118 -2.47397
rfingers 7.12502
rthumb 28.9012 -30.2547
lclavicle -1.29309e-013 0
lhumerus -87.4788 -33.5164 143.58
lradius 60.5799
lwrist 12.1433
lhand 14.6902 -9.23786
lfingers 7.12502
lthumb 39.56 16.1194
rfemur -13.8733 -3.2984 31.2696
rtibia 38.4763
rfoot -25.98 -10.6446
rtoes 0.418587
lfemur -14.9493 6.53909 -10.7579
ltibia 41.4493
lfoot -27.2823 7.95595
ltoes -10.3165
151
root 7.35416 16.9694 9.90394 13.7899 -49.2523 -14.4795
lowerback -5.76741 -0.105973 9.60864
upperback 4.09761 -1.10375 0.765459
thorax 7.45883 -0.0782882 -4.71542
lowerneck -11.0971 -0.436328 -0.777157
upperneck 7.81634 -1.47428 9.18659
head 4.2396 -0.247254 2.85708
rclavicle 1.28812e-013 -1.43125e-014
rhumerus -81.19 25.2865 -135.082
rradius 68.6716
rwrist -2.26466
rhand 3.71876 -1.86801
rfingers 7.12502
rthumb 29.1472 -29.6064
lclavicle 1.28812e-013 -1.43125e-014
lhumerus -87.9927 -33.0176 144.286
lradius 62.2352
lwrist 12.2333
lhand 14.4695 -9.62128
lfingers 7.12502
lthumb 39.352 15.797
rfemur -13.9397 -3.3915 31.2099
rtibia 38.4582
rfoot -25.9472 -10.502
rtoes 0.408293
lfemur -15.0251 6.57437 -10.818
ltibia 41.4674
lfoot -27.2693 7.99951
ltoes -10.3027
152
root 7.35867 16.9705 9.89938 13.9736 -49.2437 -14.6009
lowerback -5.79215 -0.0741731 9.70475
upperback 4.12439 -1.07568 0.771668
thorax 7.50715 -0.0567237 -4.75985
lowerneck -11.0398 -0.417951 -0.751987
upperneck 7.73888 -1.44143 9.14662
head 4.2041 -0.236169 2.84201
rclavicle 7.39479e-014 0
rhumerus -81.5321 24.9913 -135.746
rradius 69.6651
rwrist -2.20732
rhand 3.9198 -1.08028
rfingers 7.12502
rthumb 29.3391 -28.7852
lclavicle 7.39479e-014 0
lhumerus -88.4003 -32.5557 144.882
lradius 63.7706
lwrist 12.3475
lhand 14.1686 -9.99793
lfingers 7.12502
lthumb 39.0685 15.5025
rfemur -14.0486 -3.45318 31.2956
rtibia 38.4221
rfoot -25.9006 -10.4139
rtoes 0.430691
lfemur -15.1784 6.60788 -10.7405
ltibia 41.5124
lfoot -27.2407 8.00953
ltoes -10.2736
153
root 7.36453 16.971 9.89212 14.2507 -49.208 -14.8187
lowerback -5.79592 -0.045591 9.84457
upperback 4.13609 -1.05456 0.803541
thorax 7.52634 -0.0390541 -4.80169
lowerneck -10.9873 -0.401254 -0.726127
upperneck 7.65943 -1.41061 9.10384
head 4.16893 -0.226123 2.82582
rclavicle -3.39922e-014 2.22639e-014
rhumerus -81.8167 24.7421 -136.342
rradius 70.5559
rwrist -2.12695
rhand 4.04716 -0.282793
rfingers 7.12502
rthumb 29.4607 -27.9664
lclavicle -3.39922e-014 2.22639e-014
lhumerus -88.6921 -32.1165 145.365
lradius 65.1692
lwrist 12.4604
lhand 13.7684 -10.3146
lfingers 7.12502
lthumb 38.6912 15.2932
rfemur -14.1891 -3.47615 31.4706
rtibia 38.374
rfoot -25.842 -10.3708
rtoes 0.472896
lfemur -15.3861 6.63194 -10.5835
ltibia 41.5835
lfoot -27.2143 8.01336
ltoes -10.2335
154
root 7.37082 16.9713 9.8847 14.5197 -49.1731 -15.0282
lowerback -5.7855 -0.0218344 9.97192
upperback 4.14418 -1.03693 0.837249
thorax 7.53287 -0.0245341 -4.8347
lowerneck -10.9447 -0.385303 -0.694195
upperneck 7.58721 -1.38177 9.05381
head 4.13763 -0.216781 2.80634
rclavicle -6.34123e-014 9.54166e-015
rhumerus -82.0533 24.544 -136.879
rradius 71.3657
rwrist -2.0779
rhand 4.16684 0.377497
rfingers 7.12502
rthumb 29.575 -27.2859
lclavicle -6.34123e-014 9.54166e-015
lhumerus -88.872 -31.6977 145.735
lradius 66.4286
lwrist 12.5636
lhand 13.3279 -10.5738
lfingers 7.12502
lthumb 38.2754 15.1499
rfemur -14.3262 -3.5028 31.6383
rtibia 38.3205
rfoot -25.7822 -10.3175
rtoes 0.538629
lfemur -15.5978 6.63195 -10.4355
ltibia 41.6704
lfoot -27.2135 8.03097
ltoes -10.1588
